<svg width="749" height="683" viewBox="0 0 749 683" fill="none" xmlns="http://www.w3.org/2000/svg">
<path d="M544.271 60.7328L614.526 1.7063C614.526 1.7063 635.713 25.5217 610.802 48.0691C585.891 70.6166 564.399 103.064 564.399 103.064L544.271 60.7328Z" fill="white"/>
<path d="M544.848 357.832H346.637L208.922 776.106V840.237H628.248C686.673 840.237 746.334 790.362 746.334 706.708C746.334 613.039 746.912 528.425 746.912 479.543C746.912 430.66 752.561 373.633 684.057 332.017C638.938 304.609 614.396 292.482 601.765 294.79C589.133 297.099 591.685 322.784 591.685 322.784C591.685 322.784 572.841 321.89 567.962 337.252C563.853 350.257 577.014 358.466 577.014 358.466L544.848 357.832Z" fill="white"/>
<path d="M596.067 175.177C596.067 155.155 592.138 135.334 584.508 116.864C576.878 98.3938 565.7 81.6439 551.622 67.5877C537.545 53.5314 520.85 42.449 502.507 34.9847C484.164 27.5204 464.539 23.8229 444.772 24.1073C363.636 25.2615 297.763 92.9038 297.715 175.079C297.638 206.337 307.175 236.843 325.002 262.359C340.716 285.167 349.061 312.35 348.885 340.161V357.832H544.849V339.251C544.703 311.801 552.994 284.985 568.572 262.522C586.486 237.012 596.097 206.48 596.067 175.177Z" fill="white" stroke="#ED6F5D" stroke-width="3" stroke-miterlimit="10"/>
<path d="M544.85 357.832C629.806 357.832 675.086 397.107 675.086 460.068V670.391" fill="white"/>
<path d="M544.85 357.832C629.806 357.832 675.086 397.107 675.086 460.068V670.391" stroke="#ED6F5D" stroke-width="3" stroke-miterlimit="10"/>
<path d="M696.945 341.462L697.864 340.276L697.854 340.268L696.945 341.462ZM628.248 300.35L627.621 301.713L627.626 301.715L628.248 300.35ZM592.647 301.586L591.422 300.72L591.42 300.723L592.647 301.586ZM591.668 322.719L591.395 324.194L594.12 324.698L593.053 322.141L591.668 322.719ZM568.379 335.854L569.793 336.353L569.794 336.35L568.379 335.854ZM585.658 362.64C586.455 362.866 587.284 362.403 587.51 361.605C587.736 360.808 587.272 359.979 586.475 359.754L585.658 362.64ZM494.217 471.138V691.736H497.217V471.138H494.217ZM494.217 691.736C494.217 729.638 502.124 767.127 522.893 795.177C543.719 823.303 577.328 841.737 628.248 841.737V838.737C578.144 838.737 545.488 820.651 525.304 793.392C505.064 766.056 497.217 729.295 497.217 691.736H494.217ZM628.248 841.737C672.292 841.737 702.429 823.395 721.491 794.974C740.496 766.637 748.411 728.41 748.411 688.663H745.411C745.411 728.085 737.549 765.645 718.999 793.302C700.506 820.876 671.312 838.737 628.248 838.737V841.737ZM748.411 688.663V440.398H745.411V688.663H748.411ZM748.411 440.398C748.411 398.74 724.708 361.07 697.864 340.276L696.027 342.648C722.278 362.982 745.411 399.832 745.411 440.398H748.411ZM697.854 340.268C676.433 323.973 653.298 310.127 628.871 298.985L627.626 301.715C651.85 312.764 674.794 326.495 696.037 342.656L697.854 340.268ZM628.875 298.988C621.094 295.405 613.62 293.281 607.162 293.305C600.653 293.328 595.076 295.546 591.422 300.72L593.873 302.451C596.832 298.261 601.374 296.326 607.173 296.305C613.021 296.283 620.041 298.223 627.621 301.713L628.875 298.988ZM591.42 300.723C588.037 305.535 587.82 311.263 588.364 315.618C588.639 317.815 589.114 319.72 589.52 321.077C589.723 321.756 589.91 322.302 590.048 322.682C590.117 322.872 590.174 323.021 590.215 323.124C590.235 323.176 590.251 323.217 590.263 323.245C590.269 323.26 590.274 323.271 590.277 323.28C590.279 323.284 590.28 323.288 590.281 323.29C590.282 323.292 590.283 323.293 590.283 323.294C590.283 323.294 590.283 323.295 590.283 323.295C590.284 323.296 590.284 323.296 591.668 322.719C593.053 322.141 593.053 322.141 593.053 322.142C593.053 322.142 593.053 322.142 593.053 322.142C593.053 322.143 593.053 322.143 593.053 322.142C593.053 322.142 593.053 322.141 593.052 322.139C593.05 322.136 593.048 322.129 593.044 322.12C593.037 322.102 593.025 322.072 593.008 322.031C592.976 321.949 592.928 321.823 592.868 321.657C592.747 321.325 592.579 320.835 592.394 320.216C592.023 318.977 591.59 317.239 591.341 315.246C590.838 311.221 591.11 306.381 593.875 302.448L591.42 300.723ZM591.668 322.719C591.942 321.244 591.941 321.244 591.94 321.243C591.94 321.243 591.939 321.243 591.938 321.243C591.937 321.243 591.935 321.242 591.933 321.242C591.929 321.241 591.924 321.24 591.918 321.239C591.905 321.237 591.889 321.234 591.868 321.231C591.827 321.224 591.769 321.214 591.696 321.203C591.549 321.181 591.34 321.152 591.076 321.121C590.547 321.06 589.796 320.993 588.879 320.967C587.052 320.916 584.54 321.026 581.825 321.683C576.346 323.01 570.041 326.579 566.963 335.357L569.794 336.35C572.462 328.742 577.802 325.744 582.531 324.599C584.92 324.021 587.154 323.92 588.795 323.966C589.613 323.989 590.277 324.048 590.731 324.101C590.957 324.127 591.13 324.152 591.244 324.169C591.3 324.178 591.342 324.184 591.367 324.189C591.38 324.191 591.389 324.192 591.393 324.193C591.396 324.194 591.397 324.194 591.397 324.194C591.397 324.194 591.397 324.194 591.397 324.194C591.397 324.194 591.396 324.194 591.396 324.194C591.396 324.194 591.395 324.194 591.668 322.719ZM566.964 335.354C564.909 341.17 564.959 346.796 568.029 351.639C571.063 356.426 576.865 360.153 585.658 362.64L586.475 359.754C578.03 357.365 573.038 353.939 570.563 350.033C568.123 346.183 567.948 341.575 569.793 336.353L566.964 335.354Z" fill="#ED6F5D"/>
<path d="M534.256 164.009C548.448 164.009 559.953 149.372 559.953 131.317C559.953 113.262 548.448 98.626 534.256 98.626C520.064 98.626 508.559 113.262 508.559 131.317C508.559 149.372 520.064 164.009 534.256 164.009Z" stroke="#ED6F5D" stroke-width="3" stroke-miterlimit="10"/>
<path d="M534.255 164.009V98.6584C520.067 98.6584 508.574 113.289 508.574 131.366C508.574 149.443 520.067 164.009 534.255 164.009Z" fill="#ED6F5D" stroke="#ED6F5D" stroke-width="3" stroke-miterlimit="10"/>
<path d="M300.957 146.03H379.606C440.888 146.03 491.544 101.845 512.041 85.8815C555.009 52.5074 612.165 4.90899 614.958 1.93373C617.751 -1.04153 634.781 20.6451 610.849 48.0207C591.444 70.2104 572.022 92.7741 572.022 92.7741" stroke="#ED6F5D" stroke-width="3" stroke-miterlimit="10"/>
<path d="M324.824 88.6285C331.79 80.1915 349.35 69.121 361.741 75.3309C377.407 83.264 364.614 112.346 364.614 112.346L352.737 143.932" stroke="#ED6F5D" stroke-width="3" stroke-miterlimit="10"/>
<path d="M306.992 122.929H360.666" stroke="#ED6F5D" stroke-width="3" stroke-miterlimit="10"/>
<path d="M385.794 18.2654L369.411 26.7013C365.223 28.8579 363.553 34.0414 365.68 38.279C367.807 42.5166 372.927 44.2037 377.115 42.0471L393.497 33.6113C397.685 31.4547 399.356 26.2712 397.228 22.0336C395.101 17.7959 389.982 16.1089 385.794 18.2654Z" fill="#ED6F5D" stroke="#ED6F5D" stroke-width="3"/>
<path d="M325.049 262.359C331.378 267.097 338.572 270.518 346.214 272.424C353.856 274.329 361.796 274.682 369.574 273.462C433.552 263.968 409.701 181.273 409.701 181.273C409.701 181.273 421.819 204.747 449.619 204.747C477.419 204.747 485.878 177.274 485.878 155.978V105.795" stroke="#ED6F5D" stroke-width="3" stroke-miterlimit="10"/>
<path d="M552.891 184.719C552.891 184.719 563.661 198.065 594.35 198.065" stroke="#ED6F5D" stroke-width="3" stroke-miterlimit="10"/>
<path d="M495.557 179.029C495.483 176.462 495.919 173.906 496.838 171.513C497.757 169.119 499.141 166.937 500.907 165.094C502.674 163.252 504.788 161.788 507.123 160.788C509.459 159.788 511.969 159.272 514.505 159.272C517.041 159.272 519.551 159.788 521.886 160.788C524.222 161.788 526.336 163.252 528.102 165.094C529.869 166.937 531.253 169.119 532.172 171.513C533.091 173.906 533.526 176.462 533.453 179.029" stroke="#ED6F5D" stroke-width="3" stroke-miterlimit="10"/>
<path d="M675.084 479.543H746.911" stroke="#ED6F5D" stroke-width="3" stroke-miterlimit="10"/>
<path d="M591.686 322.784C591.686 322.784 623.257 326.279 646.579 345.949" stroke="#ED6F5D" stroke-width="3" stroke-miterlimit="10"/>
<path d="M704.73 332.017V357.832C704.73 371.471 708.262 384.915 721.953 384.915" stroke="#ED6F5D" stroke-width="3" stroke-miterlimit="10"/>
<path d="M397.309 759.849V436.48C397.308 427.875 400.078 419.505 405.199 412.64C410.321 405.775 417.514 400.789 425.687 398.44L553.302 361.721C555.529 361.081 555.067 357.799 552.749 357.799H416.827C407.939 357.797 399.139 359.568 390.928 363.012C382.717 366.456 375.256 371.504 368.972 377.868C362.688 384.233 357.703 391.789 354.303 400.105C350.903 408.422 349.155 417.335 349.157 426.336V771.667C349.157 789.844 356.286 807.277 368.977 820.13C381.667 832.983 398.879 840.204 416.827 840.204H528.123L603.642 838.578L427.757 798.425C419.114 796.448 411.391 791.552 405.858 784.542C400.324 777.532 397.31 768.824 397.309 759.849Z" fill="white"/>
<path d="M416.827 840.204C398.879 840.204 381.667 832.983 368.977 820.13C356.286 807.277 349.157 789.844 349.157 771.667V426.336C349.155 417.335 350.903 408.422 354.303 400.105C357.703 391.789 362.688 384.233 368.972 377.868C375.256 371.504 382.717 366.456 390.928 363.012C399.139 359.568 407.94 357.797 416.827 357.799H552.749C555.067 357.799 555.529 361.081 553.302 361.721L425.687 398.44C417.514 400.789 410.321 405.775 405.199 412.64C400.078 419.505 397.308 427.875 397.309 436.48V759.849C397.31 768.824 400.324 777.532 405.858 784.542C411.391 791.552 419.114 796.448 427.757 798.425L603.642 838.578L528.123 840.204H416.827ZM416.827 840.204H208.873V796.865" stroke="#ED6F5D" stroke-width="3" stroke-miterlimit="10"/>
<path d="M349.157 381.875C349.157 303.434 286.371 239.844 208.921 239.844C131.471 239.844 68.6855 303.434 68.6855 381.875V654.346C68.6855 732.788 131.471 796.377 208.921 796.377C286.371 796.377 349.157 732.788 349.157 654.346V381.875Z" fill="#ED6F5D" stroke="#ED6F5D" stroke-width="3" stroke-miterlimit="10"/>
<path d="M257.637 322.784L305.516 330.083L346.734 546.063L300.845 539.089L293.735 494.889L219.163 483.509L199.18 523.581L154.928 516.851L257.637 322.784ZM235.92 449.956L287.78 457.922L274.169 373.389L235.92 449.956Z" fill="white" stroke="#ED6F5D" stroke-width="3" stroke-miterlimit="10"/>
<path d="M111.093 226.319C118.963 224.435 127.166 224.496 135.008 226.498C141.544 228.122 147.784 230.783 153.499 234.382C159.689 238.413 165.056 243.612 169.309 249.695C175.17 257.906 178.961 267.444 180.352 277.477C181.957 288.087 179.357 298.383 172.551 308.364C182.428 305.796 190.988 306.186 198.232 309.535C205.477 312.883 213.384 320.415 221.955 332.131L230.093 343.364C235.636 351.004 239.691 355.957 242.26 358.222C244.01 359.929 246.099 361.239 248.387 362.065C250.676 362.892 253.112 363.217 255.534 363.018L258.583 367.212L220.591 395.546C216.867 392.62 213.946 390.182 211.859 388.247C207.545 384.197 203.592 379.769 200.046 375.015L188.554 359.636C180.667 349.081 173.712 343.326 167.688 342.372C161.663 341.419 153.825 344.513 144.173 351.655L110.467 376.705L158.009 442.267L124.302 467.334L2.97461 300.09L81.9283 241.372C93.3779 233.211 103.099 228.194 111.093 226.319ZM57.7398 304.056L90.2908 349.005L127.416 321.369C134.778 315.885 139.647 310.868 142.022 306.316C146.249 298.285 144.96 289.583 138.154 280.208C130.814 270.086 122.729 265.626 113.902 266.829C108.926 267.512 102.891 270.471 95.7962 275.754L57.7398 304.056Z" fill="white" stroke="#ED6F5D" stroke-width="3" stroke-miterlimit="10"/>
<path d="M68.6855 412.242C68.6855 412.242 85.5068 524.865 208.921 524.865C332.336 524.865 349.157 412.242 349.157 412.242V654.346C349.157 713.064 309.656 796.377 208.921 796.377C134.911 796.377 68.6855 733.091 68.6855 654.346V412.242Z" fill="white" stroke="#ED6F5D" stroke-width="3" stroke-miterlimit="10"/>
<path d="M348.932 357.832C348.932 357.832 349.157 342.096 349.157 333.643C349.157 284.532 301.005 213.346 290.684 196.505C276.238 172.803 256.063 142.404 203.448 142.404H103.307C75.2186 142.404 32.8125 157.766 32.8125 210.355C32.8125 260.392 74.8816 281.249 104.945 281.249H241.071C269.208 281.249 287.779 285.248 306.992 307.795C332.673 337.934 348.932 357.832 348.932 357.832Z" fill="white" stroke="#ED6F5D" stroke-width="3" stroke-miterlimit="10"/>
<path d="M71.0138 195.936H16.2486C8.91756 195.936 2.97461 201.955 2.97461 209.38C2.97461 216.805 8.91756 222.824 16.2486 222.824H71.0138C78.3448 222.824 84.2878 216.805 84.2878 209.38C84.2878 201.955 78.3448 195.936 71.0138 195.936Z" fill="white" stroke="#ED6F5D" stroke-width="3" stroke-miterlimit="10"/>
<path d="M82.2324 649.144L72.4896 641.325C71.3031 640.37 70.3448 639.157 69.6861 637.775C69.0275 636.393 68.6854 634.878 68.6856 633.343V629.1C68.6839 627.186 69.2153 625.31 70.2186 623.689C71.222 622.067 72.6566 620.764 74.3578 619.931C76.0591 619.097 77.9578 618.766 79.8362 618.977C81.7146 619.187 83.4964 619.929 84.9771 621.118L94.7199 628.938C95.9064 629.892 96.8646 631.106 97.5233 632.488C98.182 633.87 98.5241 635.385 98.5239 636.919V641.162C98.5255 643.076 97.9942 644.952 96.9909 646.574C95.9875 648.196 94.5528 649.498 92.8516 650.332C91.1504 651.165 89.2516 651.496 87.3732 651.286C85.4948 651.076 83.713 650.334 82.2324 649.144Z" fill="white" stroke="#ED6F5D" stroke-width="3" stroke-miterlimit="10"/>
<path d="M508.559 131.317C508.559 94.188 518.831 75.8672 534.24 75.8672C544.223 75.8672 549.713 85.1333 549.713 85.1333" stroke="#ED6F5D" stroke-width="3"/>
<path d="M573.628 90.9205C573.628 90.9205 602.825 58.9119 611.428 48.2641C631.074 24.0422 616.757 3.15295 616.757 3.15295L544.271 60.7326L573.628 90.9205Z" fill="#ED6F5D"/>
<path d="M308.228 121.953L300.957 146.029H383.025C409.669 146.029 445.205 131.577 469.105 116.378C493.005 101.178 544.335 60.7324 544.335 60.7324C544.335 60.7324 500.468 24.1071 446.955 24.1071C375.063 24.1071 328.805 81.3128 328.805 81.3128C328.805 81.3128 335.546 73.4936 350.859 73.4936C390.986 73.4936 360.73 122.929 360.73 122.929L308.228 121.953Z" fill="#ED6F5D"/>
<path d="M700.124 332.017C706.339 332.017 712.3 334.518 716.694 338.969C721.089 343.42 723.558 349.457 723.558 355.751V479.543H676.754V355.768C676.754 352.651 677.36 349.564 678.538 346.685C679.715 343.805 681.442 341.189 683.618 338.985C685.794 336.781 688.377 335.033 691.22 333.84C694.063 332.647 697.185 332.018 700.263 332.018L700.124 332.017Z" fill="white" stroke="#ED6F5D" stroke-width="3" stroke-miterlimit="10"/>
</svg>
