<svg width="24" height="25" viewBox="0 0 24 25" fill="none" xmlns="http://www.w3.org/2000/svg">
<path d="M13.4144 12.5001L18.0002 17.0859C18.3907 17.4764 18.3907 18.1096 18.0002 18.5001C17.6096 18.8906 16.9765 18.8906 16.5859 18.5001L11.1957 13.1098C10.8589 12.7731 10.8589 12.2271 11.1957 11.8903L16.5859 6.50007C16.9765 6.10955 17.6096 6.10955 18.0002 6.50008C18.3907 6.8906 18.3907 7.52376 18.0002 7.91429L13.4144 12.5001Z" fill="#262626"/>
<path d="M10.8786 12.5001L6.29282 17.0859C5.90229 17.4764 5.90229 18.1096 6.29282 18.5001C6.68334 18.8906 7.31651 18.8906 7.70703 18.5001L13.0973 13.1098C13.434 12.7731 13.434 12.2271 13.0973 11.8903L7.70703 6.50007C7.31651 6.10955 6.68334 6.10955 6.29282 6.50008C5.90229 6.8906 5.90229 7.52376 6.29282 7.91429L10.8786 12.5001Z" fill="#262626"/>
</svg>
