<svg width="28" height="28" viewBox="0 0 28 28" fill="none" xmlns="http://www.w3.org/2000/svg">
<path fill-rule="evenodd" clip-rule="evenodd" d="M13.9999 0.89318C14.4934 0.893181 14.8935 1.29327 14.8935 1.7868L14.8936 13.1059L26.2127 13.1059C26.7063 13.1059 27.1064 13.506 27.1064 13.9995C27.1064 14.493 26.7063 14.8931 26.2127 14.8931L14.8936 14.8931L14.8936 26.2123C14.8936 26.7058 14.4935 27.1059 14 27.1059C13.5064 27.1059 13.1064 26.7058 13.1064 26.2123L13.1063 14.8931L1.78726 14.8931C1.29373 14.8931 0.893641 14.493 0.89364 13.9995C0.893639 13.5059 1.29372 13.1058 1.78725 13.1058L13.1063 13.1059L13.1063 1.78679C13.1063 1.29326 13.5064 0.893179 13.9999 0.89318Z" fill="#262626"/>
</svg>
