<svg width="125" height="107" fill="none" xmlns="http://www.w3.org/2000/svg"><path d="M13.592 72.97c2.304 6.48 8.413 10.856 14.651 13.844 17.073 8.112 37.442 8.745 54.919 1.767" stroke="#262626" stroke-width="9.893" stroke-miterlimit="10"/><path d="M80.785 74.914c.273 9.942 2.211 19.869 5.71 29.319M19.713 61.318C14.445 70.198 9.28 79.105 4.038 87.882M19.954 2.779c-3.9 7.305-7.612 15.112-7.282 23.348.33 8.235 6.157 16.811 14.387 17.442 9.908.687 16.764-9.561 21.198-18.498 2.89-5.724 5.769-11.328 8.66-17.052M88.737 17.106c-.8 6.417-4.41 12.055-6.495 18.095-2.086 6.04-2.178 13.736 2.807 17.876 4.545 3.732 11.396 2.772 16.729.206 11.55-5.52 19.278-18.186 19.065-30.972" stroke="#262626" stroke-width="8" stroke-miterlimit="10"/></svg>