<svg width="381" height="247" fill="none" xmlns="http://www.w3.org/2000/svg"><path d="M231.774 20.545h-88.79v59.479h88.79v-59.48z" fill="#10AD78"/><path d="M228.231 23.95v52.642h-81.706V23.951h81.706zm7.084-6.81h-95.874v66.262h95.874V17.141z" fill="#262626"/><path d="M254.963 17.14h-19.651v66.29h19.651V17.14z" fill="#262626"/><path d="M200.376 1c-3.599 0-6.546 4.318-6.546 9.534l.227 39.703h-11.929l-.383-37.02c-.099-5.27-3.187-9.534-6.772-9.357-3.584.177-6.29 4.55-6.205 9.82V77.667h38.154V10.588c0-5.27-2.947-9.588-6.546-9.588z" fill="#fff" stroke="#262626" stroke-width="1.036" stroke-miterlimit="10"/><path d="M195.953 65h-.014c-1.627 0-2.947 1.268-2.947 2.833v.014c0 1.564 1.32 2.833 2.947 2.833h.014c1.628 0 2.947-1.269 2.947-2.833v-.014c0-1.565-1.319-2.833-2.947-2.833zM181.93 65h-.014c-1.628 0-2.947 1.268-2.947 2.833v.014c0 1.564 1.319 2.833 2.947 2.833h.014c1.627 0 2.947-1.269 2.947-2.833v-.014c0-1.565-1.32-2.833-2.947-2.833z" fill="#262626"/><path d="M206.411 81.809h-88.79v59.478h88.79V81.809z" fill="#10AD78"/><path d="M202.869 85.212v52.669h-81.691V85.212h81.691zm7.084-6.81h-95.859v66.289h95.859V78.402z" fill="#262626"/><path d="M222.132 78.469h-15.155v66.277h15.155V78.469z" fill="#262626"/><path d="M168.54 61.977c-3.599 0-6.546 4.317-6.546 9.534l.227 39.702h-11.93l-.311-36.965c-.099-5.27-3.188-9.534-6.787-9.357-3.598.177-6.276 4.55-6.191 9.834V138.712h38.154V71.565c-.071-5.27-3.018-9.588-6.616-9.588z" fill="#fff" stroke="#262626" stroke-width="1.036" stroke-miterlimit="10"/><path d="M164.121 125.992h-.014c-1.627 0-2.947 1.269-2.947 2.833v.014c0 1.564 1.32 2.833 2.947 2.833h.014c1.628 0 2.947-1.269 2.947-2.833v-.014c0-1.564-1.319-2.833-2.947-2.833zM150.094 125.992h-.014c-1.628 0-2.947 1.269-2.947 2.833v.014c0 1.564 1.319 2.833 2.947 2.833h.014c1.627 0 2.947-1.269 2.947-2.833v-.014c0-1.564-1.32-2.833-2.947-2.833zM179.282 142.234h-33.446v20.587h33.446v-20.587z" fill="#262626"/><path d="M308.419 61.037h-88.79v59.479h88.79V61.037z" fill="#10AD78"/><path d="M304.877 64.443v52.655h-81.692V64.443h81.692zm7.084-6.81h-95.859v66.275h95.859V57.633zM331.612 57.633h-19.651v66.289h19.651v-66.29z" fill="#262626"/><path d="M277.985 40.783c-3.598 0-6.545 4.318-6.545 9.602l.212 39.69h-11.915l-.396-37.02c-.085-5.271-3.174-9.534-6.773-9.357-3.598.177-6.276 4.549-6.191 9.834v63.987h38.196V50.385c0-5.284-2.989-9.602-6.588-9.602z" fill="#fff" stroke="#262626" stroke-width="1.036" stroke-miterlimit="10"/><path d="M273.567 104.799h-.015c-1.627 0-2.947 1.268-2.947 2.833v.013c0 1.565 1.32 2.833 2.947 2.833h.015c1.627 0 2.946-1.268 2.946-2.833v-.013c0-1.565-1.319-2.833-2.946-2.833zM259.539 104.799h-.014c-1.627 0-2.947 1.268-2.947 2.833v.013c0 1.565 1.32 2.833 2.947 2.833h.014c1.628 0 2.947-1.268 2.947-2.833v-.013c0-1.565-1.319-2.833-2.947-2.833zM281.188 121.648h-33.446v20.085h33.446v-20.085zM105.055 132.611c0-27.313-23.032-49.455-51.444-49.455-28.411 0-51.443 22.142-51.443 49.455v47.738c0 27.313 23.032 49.454 51.443 49.454 28.412 0 51.444-22.141 51.444-49.454v-47.738z" fill="#262626"/><path d="m75.56 51.625-6.852 3.05c-6.39 2.844-9.173 10.13-6.215 16.273l17.064 35.436c2.958 6.144 10.537 8.819 16.928 5.975l6.852-3.05c6.391-2.844 9.174-10.13 6.215-16.273L92.489 57.6c-2.959-6.144-10.537-8.819-16.928-5.975z" fill="#262626"/><path d="M88.505 74.422c3.462-10.52-2.602-21.747-13.543-25.073-10.94-3.326-22.616 2.506-26.077 13.028l-4.981 15.142c-3.462 10.52 2.602 21.747 13.543 25.073 10.94 3.326 22.616-2.506 26.077-13.028l4.981-15.141z" fill="#fff"/><path d="m63.458 51.686-5.52-4.954c-5.148-4.62-13.216-4.353-18.022.596L12.198 75.872c-4.805 4.949-4.528 12.706.62 17.326l5.52 4.953c5.148 4.62 13.217 4.353 18.022-.596l27.718-28.544c4.806-4.949 4.528-12.706-.62-17.325z" fill="#262626"/><path d="m100.794 62.34 1.478-4.492c2.124-6.455-1.598-13.343-8.312-15.384l-33.65-10.23c-6.714-2.042-13.879 1.536-16.002 7.99l-1.478 4.494c-2.124 6.455 1.598 13.342 8.312 15.384l33.65 10.23c6.714 2.041 13.879-1.536 16.002-7.991z" fill="#262626"/><path d="M57.238 80.283 51.047 99.08M62.65 82.258l-6.177 18.795M67.707 83.457l-6.191 18.809M72.654 84.969l-6.177 18.809M78.293 86.67l-6.191 18.809" stroke="#262626" stroke-width="1.036" stroke-miterlimit="10"/><path d="m97.473 171.931.127.627 2.834 63.17L274.4 202.794c43.581-8.24 105.352-49.645 98.198-84.594l-.185-.749-274.94 54.48z" fill="#fff" stroke="#262626" stroke-width="2.589" stroke-miterlimit="10"/><path d="m2.492 190.292 6.716 32.797c1.482 7.147 5.848 13.439 12.144 17.5 6.294 4.061 14.006 5.56 21.448 4.17l105.054-19.886c7.434-1.425 13.979-5.622 18.203-11.674 4.225-6.051 5.784-13.465 4.338-20.619l-6.716-32.797L2.492 190.292z" fill="#fff" stroke="#262626" stroke-width="2.589" stroke-miterlimit="10"/><path d="m5.258 206.001 365.46-69.237M7.438 221.821l351.615-66.532M18.063 236.124l316.679-59.942" stroke="#262626" stroke-width="2" stroke-miterlimit="10"/><path d="m79.448 73.827-.013-.004c-1.552-.472-3.208.355-3.699 1.847l-.004.013c-.49 1.492.37 3.083 1.921 3.555l.014.004c1.552.472 3.207-.355 3.698-1.847l.004-.013c.491-1.491-.369-3.083-1.92-3.555z" fill="#262626"/><path d="M361.607 43.672h-68.459v45.423h68.459V43.672z" fill="#10AD78"/><path d="M358.05 47.078V85.69h-61.361V47.078h61.361zm7.084-6.81h-75.529V92.5h75.529V40.268z" fill="#262626"/><path d="M380.618 40.268h-15.485V92.5h15.485V40.268z" fill="#262626"/><path d="M337.637 24.469c-2.834 0-5.257 3.46-5.257 7.709l.184 31.898h-9.577l-.326-29.746c-.071-4.236-2.55-7.628-5.44-7.519-2.891.11-5.044 3.65-4.973 7.886v51.416h30.645V32.178c0-4.25-2.366-7.71-5.256-7.71z" fill="#fff" stroke="#262626" stroke-width="1.036" stroke-miterlimit="10"/><path d="M334.075 76.387h-.014c-1.306 0-2.366 1.018-2.366 2.274v.014c0 1.256 1.06 2.274 2.366 2.274h.014c1.307 0 2.367-1.018 2.367-2.274v-.014c0-1.256-1.06-2.274-2.367-2.274zM322.814 76.387h-.014c-1.307 0-2.366 1.018-2.366 2.274v.014c0 1.256 1.059 2.274 2.366 2.274h.014c1.307 0 2.366-1.018 2.366-2.274v-.014c0-1.256-1.059-2.274-2.366-2.274z" fill="#262626"/></svg>