<svg width="960" height="281" fill="none" xmlns="http://www.w3.org/2000/svg"><path d="M732.914 80.116 726.77 94.98c-9.825-5.276-17.598-9.449-20.033-8.17-3.093 1.697-7.63 12.675-13.918 27.885l-12.877-6.914c8.951-21.654 13.058-31.59 20.785-35.759 8.527-4.609 16.929-.097 32.187 8.095z" stroke="#262626" stroke-width="3" stroke-miterlimit="10"/><path d="M798.21 75.73c-6.234 15.078-10.737 25.972-13.84 27.658-2.299 1.236-9.683-2.652-19.106-7.711-.213-3.518-1.238-6.905-2.971-9.814-1.734-2.909-4.113-5.237-6.895-6.746l-4.226-2.269c-4.172-2.225-8.953-2.466-13.297-.67-4.343 1.795-7.896 5.48-9.881 10.252l-7.017 16.976c-1.964 4.782-2.196 10.252-.645 15.212 1.551 4.96 4.758 9.007 8.921 11.258l4.226 2.269c4.173 2.22 8.952 2.459 13.295.664 4.342-1.795 7.895-5.478 9.883-10.246l4.536-10.972c13.443 7.218 21.317 10.851 29.219 6.571 7.902-4.28 11.778-13.979 20.654-35.453l-12.856-6.98z" fill="#8166EB" stroke="#262626" stroke-width="3" stroke-miterlimit="10"/><path d="m0 279 819.587-.463M818.523 278.665v-57.997h50.765v57.997H960" stroke="#262626" stroke-width="3" stroke-miterlimit="10"/><path d="M877.006 199.193h-65.08v21.521h65.08v-21.521z" stroke="#262626" stroke-width="3" stroke-miterlimit="10"/><path d="m675.778 147.625 5.826-14.095c10 5.369 17.956 9.641 20.416 8.263 3.223-1.714 8.263-12.239 14.523-27.383l11.91 6.269c-8.843 21.392-12.876 31.149-20.557 35.235-8.361 4.466-16.828-.08-32.118-8.289z" fill="#8166EB" stroke="#262626" stroke-width="3" stroke-miterlimit="10"/><path d="M774.076 141.209c-3.687-8.767-12.349-13.321-31.319-23.313l-22.736-12.213-5.33 12.923c-1.603 3.91-1.787 8.381-.512 12.439 1.275 4.057 3.905 7.371 7.316 9.218l8.158 4.38c3.224 1.716 6.896 1.997 10.297.787 3.402-1.21 6.288-3.823 8.095-7.329 7.482 4.132 12.534 7.387 13.605 9.954 1.071 2.567-2.465 11.941-7.132 23.436l12.511 6.582c7.17-17.673 11.097-27.38 7.047-36.864z" fill="#8166EB" stroke="#262626" stroke-width="3" stroke-miterlimit="10"/><path d="m672.21 127.299-3.073-1.65c-2.628-1.411-5.73-.204-6.929 2.697l-9.596 23.214c-1.199 2.901-.041 6.396 2.587 7.807l3.073 1.65c2.628 1.411 5.731.203 6.93-2.698l9.595-23.213c1.2-2.901.041-6.396-2.587-7.807zM773.135 187.711l-17.154-11.051c-3.418-1.835-7.951.849-10.075 5.987l30.216 16.223c2.148-5.198.431-9.324-2.987-11.159zM727.309 110.421l14.531-35.153M747.16 74.756l-15.443 38.031M742.984 117.579l14.852-36.352M762.281 85.37l-14.828 35.87M775.008 37.058l-15.338.208c-5.889.08-10.607 5.582-10.54 12.29l.122 12.147c.068 6.708 4.896 12.082 10.785 12.002l15.338-.208c5.888-.08 10.607-5.583 10.54-12.291l-.122-12.146c-.068-6.709-4.896-12.082-10.785-12.002z" stroke="#262626" stroke-width="3" stroke-miterlimit="10"/><mask id="a" fill="#fff"><path d="m764.853 64.516-.025-1.765c-.029-1.476.445-2.892 1.319-3.937.874-1.046 2.075-1.636 3.342-1.642l15.953-.003c1.268.007 2.494.597 3.411 1.642.916 1.045 1.449 2.46 1.482 3.936l.037 1.758"/></mask><path d="m764.853 64.516-.025-1.765c-.029-1.476.445-2.892 1.319-3.937.874-1.046 2.075-1.636 3.342-1.642l15.953-.003c1.268.007 2.494.597 3.411 1.642.916 1.045 1.449 2.46 1.482 3.936l.037 1.758" fill="#262626"/><path d="m764.828 62.75 2.893-.246v-.02l-2.893.267zm4.661-5.578.188-3.104h-.013l-.175 3.104zm15.953-.003.203-3.104h-.015l-.188 3.104zm4.893 5.578 2.892-.272v-.003l-2.892.275zm-22.59 1.522-.024-1.765-5.785.494.024 1.764 5.785-.493zm-.024-1.785c-.015-.74.224-1.325.524-1.684l-4.196-3.973c-1.447 1.733-2.156 3.979-2.113 6.19l5.785-.533zm.524-1.684c.284-.34.654-.523 1.069-.525l.35-6.207c-2.119.01-4.152 1.01-5.615 2.76l4.196 3.972zm1.057-.525 15.953-.003.375-6.207-15.953.003-.375 6.207zm15.938-.003c.441.003.983.215 1.446.742l4.333-4.406c-1.37-1.563-3.279-2.531-5.374-2.543l-.405 6.207zm1.446.742c.465.53.74 1.262.757 2.009l5.784-.551c-.05-2.207-.84-4.304-2.208-5.864l-4.333 4.406zm.757 2.006.037 1.758 5.784-.545-.037-1.758-5.784.545z" fill="#262626" mask="url(#a)"/><path d="m737.42 29.948-.588-2.99c-.482-2.49.245-5.177 1.402-7.32 1.156-2.144 2.997-3.657 5.12-4.21l24.656-6.84c2.126-.529 4.354-.054 6.2 1.321s3.16 3.54 3.657 6.022l.589 2.99" stroke="#262626" stroke-width="3" stroke-miterlimit="10"/><path d="m791.329 1 .667 3.39c.542 2.797.086 5.727-1.269 8.148-1.356 2.42-3.5 4.136-5.963 4.771L736.36 29.69M798.505 75.886l1.68-4.064c.737-1.773 2.038-3.153 3.619-3.838 1.58-.685 3.311-.619 4.814.183 1.5.81 2.647 2.29 3.19 4.115a8.538 8.538 0 0 1-.293 5.624l-1.679 4.064M691.272 113.865l-1.568 3.793c-.688 1.654-1.942 2.921-3.488 3.522-1.546.602-3.258.489-4.761-.313-1.5-.81-2.666-2.243-3.243-3.984-.578-1.742-.52-3.65.162-5.309l1.567-3.793M374.188 184.36c21.862-24.985 51.514-39.022 82.432-39.022 30.919 0 60.571 14.037 82.433 39.022 21.863 24.986 34.145 58.874 34.145 94.209M573.895 276.185c0-90.218 36.141-163.367 80.717-163.367" stroke="#262626" stroke-width="3" stroke-miterlimit="10"/></svg>