<svg width="393" height="232" fill="none" xmlns="http://www.w3.org/2000/svg"><path d="M179.454 35.459c5.665 0 7.3 7.584 3.627 16.837l-26.379 66.2h18.503l25.723-61.51c3.811-9.227 11.514-16.584 17.087-16.332 5.573.253 7.035 7.99 3.224 17.23l-25.089 60.675h.103l-21.002 52.68h-60.208l13.288-33.441 7.714-19.365 26.368-66.2c3.707-9.253 11.353-16.8 17.041-16.774z" fill="#fff" stroke="#262626" stroke-width="2.087" stroke-miterlimit="10"/><path d="M149.266 159.361c-1.259-1.638-.408-4.7 1.901-6.838s5.201-2.543 6.46-.905c1.259 1.638.408 4.699-1.901 6.838-2.309 2.138-5.201 2.543-6.46.905zM143.736 145.867c-1.632-2.124-.532-6.089 2.457-8.858 2.99-2.768 6.736-3.291 8.368-1.167 1.632 2.124.531 6.09-2.458 8.858-2.989 2.769-6.736 3.291-8.367 1.167zM163.833 145.94c-1.632-2.124-.531-6.09 2.458-8.859 2.989-2.768 6.736-3.291 8.367-1.167 1.632 2.124.532 6.09-2.457 8.858-2.99 2.769-6.736 3.291-8.368 1.168z" fill="#262626"/><path d="M174.562 149.555c-2.659 6.687-9.66 12.097-15.624 12.072-3.132 0-5.354-1.53-6.368-3.931-2.709 2.354-6.024 3.712-9.476 3.88-5.964 0-8.636-5.473-5.976-12.16" stroke="#262626" stroke-width="3" stroke-miterlimit="10"/><path d="M233.86 35.459c5.665 0 7.3 7.584 3.627 16.837l-26.379 66.2h18.503l25.723-61.51c3.811-9.227 11.514-16.584 17.087-16.332 5.573.253 7.036 7.99 3.224 17.23l-25.089 60.675h.103l-21.002 52.68h-60.208l13.288-33.441 7.714-19.365 26.368-66.2c3.708-9.253 11.353-16.8 17.041-16.774z" fill="#fff" stroke="#262626" stroke-width="2.087" stroke-miterlimit="10"/><path d="M203.672 159.361c-1.259-1.638-.407-4.7 1.902-6.838 2.308-2.138 5.2-2.543 6.459-.905 1.259 1.638.408 4.699-1.901 6.838-2.309 2.138-5.201 2.543-6.46.905zM198.142 145.867c-1.632-2.124-.532-6.089 2.458-8.858 2.989-2.768 6.735-3.291 8.367-1.167 1.632 2.124.532 6.09-2.458 8.858-2.989 2.769-6.735 3.291-8.367 1.167zM218.239 145.94c-1.631-2.124-.531-6.09 2.458-8.859 2.99-2.768 6.736-3.291 8.368-1.167 1.632 2.124.531 6.09-2.458 8.858-2.989 2.769-6.736 3.291-8.368 1.168z" fill="#262626"/><path d="M228.969 149.555c-2.66 6.687-9.661 12.097-15.625 12.072-3.132 0-5.354-1.53-6.367-3.931-2.709 2.354-6.025 3.712-9.477 3.88-5.964 0-8.635-5.473-5.976-12.16" stroke="#262626" stroke-width="3" stroke-miterlimit="10"/><path d="M289.184 35.459c5.665 0 7.3 7.584 3.627 16.837l-26.379 66.2h18.504l25.722-61.51c3.812-9.227 11.515-16.584 17.088-16.332 5.572.253 7.035 7.99 3.224 17.23l-25.09 60.675h.104l-21.002 52.68h-60.208l13.287-33.441 7.715-19.365 26.367-66.2c3.708-9.253 11.353-16.8 17.041-16.774z" fill="#fff" stroke="#262626" stroke-width="2.087" stroke-miterlimit="10"/><path d="M258.996 159.361c-1.258-1.638-.407-4.7 1.902-6.838 2.309-2.138 5.201-2.543 6.459-.905 1.259 1.638.408 4.699-1.901 6.838-2.309 2.138-5.201 2.543-6.46.905zM253.466 145.867c-1.632-2.124-.532-6.089 2.458-8.858 2.989-2.768 6.735-3.291 8.367-1.167 1.632 2.124.532 6.09-2.458 8.858-2.989 2.769-6.735 3.291-8.367 1.167zM273.564 145.94c-1.632-2.124-.532-6.09 2.457-8.859 2.99-2.768 6.736-3.291 8.368-1.167 1.632 2.124.531 6.09-2.458 8.858-2.989 2.769-6.735 3.291-8.367 1.168z" fill="#262626"/><path d="M284.289 149.555c-2.66 6.687-9.66 12.097-15.625 12.072-3.132 0-5.354-1.53-6.367-3.931-2.709 2.354-6.025 3.712-9.476 3.88-5.965 0-8.636-5.473-5.976-12.16" stroke="#262626" stroke-width="3" stroke-miterlimit="10"/><g clip-path="url(#a)"><path d="M60.841 90.389H98.79v82.858H60.841V90.389z" fill="#262626"/><path d="M28.23 4.732h108.766v83.473H28.231V4.732z" fill="#F6D655"/><path d="M32.086 8.966V83.99h101.052V8.966H32.086zM24.373.5h116.479v91.956H24.372V.5zM.489.5h23.882v91.939H.49V.5z" fill="#262626"/><path d="M105.648 85.367V61.203c-.019-6.635-2.919-12.993-8.066-17.686-5.146-4.694-12.122-7.34-19.403-7.363-7.268.04-14.224 2.695-19.355 7.386-5.13 4.692-8.02 11.04-8.04 17.663v24.164" fill="#262626"/><path d="m85.346 24.352.006.016c1.471 4.118-.378 8.765-4.13 10.38l-13.616 5.859c-3.752 1.615-7.987-.415-9.458-4.532l-.005-.016c-1.472-4.118.377-8.765 4.13-10.38l13.616-5.859c3.752-1.615 7.986.415 9.457 4.532z" fill="#262626"/><path d="M73.322 26.558c2.239-4.993 7.74-7.048 12.29-4.592 4.548 2.457 6.421 8.495 4.183 13.487l-3.229 7.201c-2.238 4.993-7.74 7.048-12.289 4.592-4.549-2.457-6.422-8.495-4.183-13.487l3.228-7.201z" fill="#fff"/><path d="M90.164 26.768h.016c4.03.056 7.255 3.686 7.205 8.11L97.2 50.926c-.05 4.423-3.358 7.963-7.388 7.907h-.016c-4.03-.055-7.255-3.686-7.205-8.108l.184-16.05c.05-4.423 3.359-7.963 7.388-7.908z" fill="#262626"/><path d="m73.6 17.046.007-.016c1.637-3.65 5.66-5.152 8.985-3.356l12.057 6.51c3.325 1.797 4.695 6.211 3.058 9.861l-.006.015c-1.637 3.65-5.66 5.153-8.985 3.357L76.66 26.906c-3.326-1.796-4.695-6.21-3.059-9.86z" fill="#262626"/><path d="m81.41 39.273-4.011 8.94M77.059 36.938l-4.012 8.922M72.66 34.549l-4.011 8.94" stroke="#262626" stroke-width="2.087" stroke-miterlimit="10"/><path d="M74.663 30.042c.318-.71 1.1-1.001 1.745-.652.646.349.912 1.206.595 1.915-.318.71-1.1 1.001-1.746.652-.646-.349-.912-1.206-.594-1.915z" fill="#262626"/></g><path d="M347.247 35.459c5.665 0 7.3 7.584 3.627 16.837l-26.379 66.2h18.503l25.723-61.51c3.811-9.227 11.514-16.584 17.087-16.332 5.573.253 7.035 7.99 3.224 17.23l-25.09 60.675h.104l-21.002 52.68h-60.208l13.288-33.441 7.714-19.365 26.368-66.2c3.707-9.253 11.353-16.8 17.041-16.774z" fill="#fff" stroke="#262626" stroke-width="2.087" stroke-miterlimit="10"/><path d="M317.059 159.361c-1.259-1.638-.408-4.7 1.901-6.838s5.201-2.543 6.46-.905c1.259 1.638.408 4.699-1.901 6.838-2.309 2.138-5.201 2.543-6.46.905zM311.529 145.867c-1.632-2.124-.532-6.089 2.457-8.858 2.99-2.768 6.736-3.291 8.368-1.167 1.632 2.124.531 6.09-2.458 8.858-2.989 2.769-6.736 3.291-8.367 1.167zM331.626 145.94c-1.632-2.124-.531-6.09 2.458-8.859 2.989-2.768 6.735-3.291 8.367-1.167 1.632 2.124.532 6.09-2.457 8.858-2.99 2.769-6.736 3.291-8.368 1.168z" fill="#262626"/><path d="M342.352 149.555c-2.66 6.687-9.661 12.097-15.625 12.072-3.132 0-5.354-1.53-6.368-3.931-2.709 2.354-6.024 3.712-9.476 3.88-5.964 0-8.636-5.473-5.976-12.16" stroke="#262626" stroke-width="3" stroke-miterlimit="10"/><path d="m278.233 172.244 5.04 18.078 2.133 40.174H141.213c-36.097-.67-91.688-25.184-91.18-58.252h228.2z" fill="#fff" stroke="#262626" stroke-width="3" stroke-miterlimit="10"/><path d="m356.918 172.244-.472 33.196c-.115 6.767-2.667 13.209-7.097 17.916-4.43 4.707-10.377 7.235-16.542 7.14h-87.013c-6.16-.133-12.021-4.497-16.3-9.363s-6.628-11.395-6.533-18.158l.472-30.731h133.485z" fill="#fff" stroke="#262626" stroke-width="3" stroke-miterlimit="10"/><path d="M356.195 183.543H53.07M356.195 195.092H58.556M356.195 207.145H71.815M352.996 218.695H91.476" stroke="#262626" stroke-width="2.087"/><defs><clipPath id="a"><path fill="#fff" transform="matrix(-1 0 0 1 140.852 .5)" d="M0 0h140.361v195.848H0z"/></clipPath></defs></svg>