<svg width="50" height="52" viewBox="0 0 50 52" fill="none" xmlns="http://www.w3.org/2000/svg">
<path fill-rule="evenodd" clip-rule="evenodd" d="M6.06169 23.2328C8.40079 22.3977 10.8623 21.2879 12.7604 19.681C15.0148 17.7725 15.9317 15.3145 16.5474 12.7271C17.3378 9.40301 17.6537 5.86201 18.6122 2.53251C18.967 1.29607 19.65 0.828694 19.9431 0.621274C20.6838 0.0973359 21.4325 -0.0427126 22.1369 0.00981595C22.9718 0.0704258 24.1185 0.386922 24.8727 1.78903C24.9802 1.98971 25.12 2.29547 25.2141 2.71435C25.2826 3.02144 25.327 3.98175 25.3996 4.37774C25.5811 5.35288 25.733 6.32806 25.8755 7.30859C26.35 10.5721 26.6229 13.3439 28.1218 16.3421C30.1558 20.4124 32.1938 22.9028 34.9577 24.0059C37.6302 25.0726 40.8255 24.872 44.9082 24.0356C45.2967 23.9413 45.6811 23.8604 46.0616 23.7945C47.8616 23.4793 49.5824 24.6632 49.9359 26.4599C50.2895 28.2553 49.1455 30.0049 47.3616 30.3996C46.9892 30.4817 46.6222 30.5598 46.2592 30.6312C40.7422 31.9997 34.3554 36.8835 30.6437 41.1598C29.4997 42.4784 27.8247 46.1648 26.1161 48.5165C24.8552 50.2513 23.4382 51.3948 22.2485 51.7989C21.4514 52.0709 20.7792 52.0292 20.224 51.8918C19.4174 51.6925 18.748 51.2547 18.2345 50.5584C17.9549 50.1772 17.6954 49.6667 17.5717 49.0148C17.5125 48.701 17.5058 47.9037 17.5072 47.5428C17.159 46.3427 16.7329 45.1708 16.4223 43.96C15.6816 41.0709 14.2284 39.2419 12.5023 36.8255C10.8878 34.5641 9.15368 33.1432 6.61159 32.0091C6.28089 31.9283 3.61243 31.2737 2.67007 30.8979C1.2935 30.347 0.637442 29.4244 0.399499 28.9274C-0.00513762 28.0842 -0.0467744 27.3475 0.0338841 26.7334C0.153527 25.8269 0.559511 25.0511 1.28006 24.4248C1.72637 24.0356 2.39315 23.657 3.28577 23.4725C3.9754 23.3284 5.80493 23.2449 6.06169 23.2328ZM21.7162 18.5241C21.8399 18.8002 21.9716 19.0777 22.1114 19.3578C25.0904 25.3191 28.4216 28.6473 32.4707 30.2622L32.6064 30.3147C29.8977 32.3297 27.4456 34.5816 25.5716 36.7407C24.8 37.6297 23.7784 39.4762 22.6747 41.37C21.6718 38.1038 20.0318 35.7952 17.9696 32.9061C16.3941 30.7013 14.7433 29.042 12.7147 27.6897C14.2889 26.8802 15.7905 25.932 17.0985 24.8248C19.2763 22.981 20.716 20.8447 21.7162 18.5241Z" fill="#fff"/>
</svg>
