<svg width="64" height="68" viewBox="0 0 64 68" fill="none" xmlns="http://www.w3.org/2000/svg">
<path fill-rule="evenodd" clip-rule="evenodd" d="M25.296 13.6124C25.1078 12.5141 24.966 11.4282 24.8744 10.3422C24.7363 8.71315 24.8217 7.07166 24.7727 5.44264C24.7514 4.75154 24.6673 2.94976 24.7012 2.69059C25.0086 0.432171 26.862 0.0865784 27.4041 0.0248728C27.6664 -0.0121505 30.3593 -0.308205 30.9403 2.62898C31.6531 6.22024 31.8815 9.83614 31.6292 13.378C32.2178 16.3893 33.2242 19.3881 34.5531 22.1031C39.841 32.9016 49.9174 33.9506 60.8346 33.8519C62.5136 33.8272 63.9078 35.123 63.9956 36.7644C64.0835 38.4181 62.8337 39.8497 61.1622 39.9977C55.0598 40.5778 44.2329 45.3909 40.4897 50.4014C39.7067 51.4504 39.2512 53.9803 38.6489 56.4609C37.8081 59.9041 36.808 63.3102 35.6874 64.7417C35.5193 64.9639 33.4751 67.2347 32.8652 67.5679C31.3996 68.3577 30.2263 67.901 29.56 67.4814C28.8937 67.0618 28.1395 66.235 27.8383 64.8651C27.5234 63.4335 27.7894 60.4963 27.7404 59.8669C27.5623 57.5838 27.098 53.104 26.1506 49.2536C25.6399 47.1803 25.0952 45.2674 24.1943 44.3171C20.8589 40.7999 15.5257 41.3183 11.0346 41.8983C10.5189 41.96 10.0031 42.0341 9.48866 42.0958C7.66034 42.6265 5.71904 43.0213 3.66736 43.2558C0.569128 43.6137 0.0596925 40.8123 0.0320858 40.6272C-0.0256373 40.2199 -0.240239 38.122 2.09504 37.2828C2.34977 37.1964 4.22956 36.7891 4.95361 36.6287C5.96251 36.4065 6.98268 36.2338 8.00664 36.0734C18.5838 32.84 24.3285 23.7568 25.296 13.6124ZM28.9263 24.8306C32.9192 32.9511 38.9789 36.8755 46.1617 38.6526H46.1604C41.6756 40.9604 37.596 43.8483 35.4339 46.7485C34.6132 47.8468 33.8604 50.0558 33.1815 52.5364C32.8138 50.2286 32.3169 47.7726 31.6606 45.6746C30.914 43.2805 29.9088 41.2937 28.787 40.1089C26.6211 37.8258 23.9031 36.5547 20.9805 35.9253C24.4791 32.877 27.1319 29.076 28.9263 24.8306Z" fill="#fff"/>
</svg>
