<svg width="22" height="14" viewBox="0 0 22 14" fill="none" xmlns="http://www.w3.org/2000/svg">
<path fill-rule="evenodd" clip-rule="evenodd" d="M10.7252 13.9328H12.0425C12.0425 13.9328 12.4394 13.8846 12.642 13.6419C12.8345 13.4156 12.8345 12.9968 12.8345 12.9968C12.8345 12.9968 12.8061 11.0234 13.6311 10.7336C14.4442 10.4459 15.4754 12.6384 16.5745 13.4812C17.4142 14.1253 18.0458 13.987 18.0458 13.987L20.9892 13.942C20.9892 13.942 22.531 13.8345 21.8023 12.4817C21.7464 12.3742 21.3889 11.4832 19.6288 9.6553C17.7845 7.74954 18.032 8.05676 20.2485 4.75317C21.5951 2.74091 22.146 1.51102 21.9673 0.988754C21.8151 0.497209 20.8123 0.619072 20.8123 0.619072L17.5104 0.650817C17.5104 0.650817 17.2629 0.619072 17.0842 0.742982C16.9054 0.864844 16.7963 1.14339 16.7963 1.14339C16.7963 1.14339 16.272 2.70916 15.5717 4.03121C14.0839 6.82585 13.4926 6.97946 13.2589 6.79513C12.7052 6.39472 12.8473 5.17712 12.8473 4.30463C12.8473 1.60011 13.2176 0.46444 12.1314 0.172585C11.7739 0.0793963 11.5071 0.0189773 10.5868 0.00259246C9.40429 -0.0117443 8.40695 0.012833 7.84136 0.321073C7.47011 0.528955 7.18136 0.988754 7.34728 1.01231C7.56728 1.04303 8.06137 1.16182 8.32262 1.56222C8.66637 2.08039 8.6517 3.23757 8.6517 3.23757C8.6517 3.23757 8.84512 6.42852 8.19887 6.82482C7.74511 7.09313 7.14011 6.53809 5.8201 4.00254C5.14635 2.71223 4.63668 1.26832 4.63668 1.26832C4.63668 1.26832 4.54043 1.00616 4.3626 0.852555C4.15451 0.683587 3.85201 0.622144 3.85201 0.622144L0.703241 0.652865C0.703241 0.652865 0.235738 0.66925 0.0716538 0.898638C-0.0805138 1.09833 0.056987 1.52843 0.056987 1.52843C0.056987 1.52843 2.51917 7.96664 5.31135 11.2088C7.86887 14.1806 10.771 13.9891 10.771 13.9891L10.7252 13.9328Z" fill="#262626"/>
</svg>
