<svg width="31" height="31" viewBox="0 0 31 31" fill="none" xmlns="http://www.w3.org/2000/svg">
<path fill-rule="evenodd" clip-rule="evenodd" d="M13.6699 18.2837C13.7959 18.1578 13.8958 18.0083 13.9639 17.8437C14.0321 17.6792 14.0672 17.5028 14.0672 17.3247C14.0672 17.1466 14.0321 16.9702 13.9639 16.8056C13.8958 16.6411 13.7959 16.4915 13.6699 16.3656C13.3161 16.0118 13.0354 15.5917 12.8439 15.1294C12.6524 14.6671 12.5538 14.1716 12.5538 13.6712C12.5538 13.1708 12.6524 12.6753 12.8439 12.213C13.0354 11.7507 13.3161 11.3306 13.6699 10.9768L18.2372 6.41073C18.5911 6.0569 19.0111 5.77622 19.4734 5.58473C19.9358 5.39323 20.4313 5.29467 20.9316 5.29467C21.432 5.29467 21.9275 5.39323 22.3899 5.58473C22.8522 5.77622 23.2722 6.0569 23.6261 6.41073C23.9799 6.76457 24.2606 7.18463 24.4521 7.64694C24.6436 8.10925 24.7421 8.60475 24.7421 9.10515C24.7421 9.60555 24.6436 10.101 24.4521 10.5634C24.2606 11.0257 23.9799 11.4457 23.6261 11.7996L22.2143 13.2101C22.0883 13.336 21.9884 13.4855 21.9203 13.6501C21.8521 13.8146 21.817 13.991 21.817 14.1691C21.817 14.3472 21.8521 14.5236 21.9203 14.6882C21.9884 14.8527 22.0883 15.0022 22.2143 15.1282C22.4686 15.3826 22.8136 15.5254 23.1733 15.5254C23.3515 15.5254 23.5278 15.4904 23.6924 15.4222C23.8569 15.354 24.0065 15.2541 24.1324 15.1282L25.5442 13.7177C26.7675 12.4944 27.4548 10.8352 27.4548 9.10515C27.4548 7.37511 26.7675 5.71593 25.5442 4.49261C24.3209 3.26929 22.6617 2.58203 20.9316 2.58203C19.2016 2.58203 17.5424 3.26929 16.3191 4.49261L11.7518 9.05865C11.146 9.66436 10.6655 10.3835 10.3377 11.1749C10.0098 11.9663 9.84111 12.8146 9.84111 13.6712C9.84111 14.5278 10.0098 15.3761 10.3377 16.1675C10.6655 16.9589 11.146 17.678 11.7518 18.2837C12.2814 18.8133 13.1403 18.8133 13.6699 18.2837V18.2837ZM16.3178 11.7996C16.1919 11.9255 16.0919 12.075 16.0238 12.2396C15.9556 12.4041 15.9205 12.5805 15.9205 12.7586C15.9205 12.9367 15.9556 13.1131 16.0238 13.2777C16.0919 13.4422 16.1919 13.5918 16.3178 13.7177C16.6717 14.0715 16.9523 14.4916 17.1438 14.9539C17.3353 15.4162 17.4339 15.9117 17.4339 16.4121C17.4339 16.9125 17.3353 17.408 17.1438 17.8703C16.9523 18.3326 16.6717 18.7527 16.3178 19.1065L11.797 23.6274C11.445 23.9895 11.0246 24.278 10.5601 24.4763C10.0956 24.6745 9.5964 24.7784 9.09142 24.7819C8.58644 24.7855 8.08579 24.6887 7.61856 24.497C7.15134 24.3054 6.72687 24.0228 6.36983 23.6657C6.01279 23.3085 5.7303 22.884 5.53878 22.4167C5.34725 21.9495 5.25052 21.4488 5.25421 20.9438C5.2579 20.4388 5.36192 19.9396 5.56024 19.4752C5.75857 19.0108 6.04722 18.5904 6.40944 18.2385L7.7334 16.9146C7.98776 16.6602 8.13066 16.3152 8.13066 15.9555C8.13066 15.5958 7.98776 15.2508 7.7334 14.9964C7.47904 14.7421 7.13406 14.5992 6.77434 14.5992C6.41462 14.5992 6.06963 14.7421 5.81528 14.9964L4.49261 16.3204C3.26929 17.5437 2.58203 19.2029 2.58203 20.9329C2.58203 22.663 3.26929 24.3222 4.49261 25.5455C5.71593 26.7688 7.37511 27.4561 9.10515 27.4561C10.8352 27.4561 12.4944 26.7688 13.7177 25.5455L18.2385 21.0246C18.8443 20.4189 19.3248 19.6998 19.6526 18.9084C19.9805 18.117 20.1492 17.2687 20.1492 16.4121C20.1492 15.5555 19.9805 14.7072 19.6526 13.9158C19.3248 13.1244 18.8443 12.4053 18.2385 11.7996C18.1126 11.6736 17.9631 11.5737 17.7985 11.5055C17.634 11.4374 17.4576 11.4023 17.2795 11.4023C17.1013 11.4023 16.925 11.4374 16.7604 11.5055C16.5959 11.5737 16.4463 11.6736 16.3204 11.7996H16.3178Z" fill="#BFBFBF"/>
</svg>
