<svg width="386" height="209" fill="none" xmlns="http://www.w3.org/2000/svg"><path d="M0 208h386" stroke="#262626" stroke-width="1.898" stroke-miterlimit="10"/><mask id="a" style="mask-type:alpha" maskUnits="userSpaceOnUse" x="4" y="0" width="364" height="208"><path fill="#C4C4C4" d="M4.844 0H367.05v208H4.844z"/></mask><g mask="url(#a)"><path d="M224.518 28.906H146.27v47.04h78.248v-47.04z" fill="#10AD78"/><path d="M221.405 31.598V73.23h-72.006V31.597h72.006zm6.243-5.386h-84.492v52.404h84.492V26.212z" fill="#262626"/><path d="M244.958 26.212h-17.317v52.426h17.317V26.212z" fill="#262626"/><path d="M196.854 13.445c-3.172 0-5.769 3.415-5.769 7.54l.2 31.4h-10.513l-.337-29.278c-.088-4.168-2.81-7.54-5.968-7.4-3.159.14-5.544 3.598-5.469 7.767V74.079h33.624V21.03c0-4.17-2.597-7.584-5.768-7.584z" fill="#fff" stroke="#262626" stroke-width=".772" stroke-miterlimit="10"/><path d="M192.961 64.059h-.012c-1.435 0-2.597 1.003-2.597 2.24v.011c0 1.238 1.162 2.24 2.597 2.24h.012c1.434 0 2.597-1.002 2.597-2.24v-.01c0-1.238-1.163-2.241-2.597-2.241zM180.602 64.059h-.013c-1.434 0-2.597 1.003-2.597 2.24v.011c0 1.238 1.163 2.24 2.597 2.24h.013c1.434 0 2.597-1.002 2.597-2.24v-.01c0-1.238-1.163-2.241-2.597-2.241z" fill="#262626"/><path d="M202.17 77.353h-78.248v47.04h78.248v-47.04z" fill="#10AD78"/><path d="M199.049 80.048v41.655h-71.994V80.048h71.994zm6.242-5.386h-84.479v52.426h84.479V74.662z" fill="#262626"/><path d="M216.028 74.713h-13.356v52.417h13.356V74.713z" fill="#262626"/><path d="M168.795 61.67c-3.171 0-5.768 3.415-5.768 7.54l.199 31.4h-10.513l-.274-29.235c-.088-4.168-2.81-7.54-5.981-7.4-3.171.14-5.531 3.598-5.456 7.777V122.358h33.624V69.253c-.062-4.168-2.659-7.583-5.831-7.583z" fill="#fff" stroke="#262626" stroke-width=".772" stroke-miterlimit="10"/><path d="M164.899 112.298h-.013c-1.434 0-2.597 1.003-2.597 2.24v.011c0 1.237 1.163 2.241 2.597 2.241h.013c1.434 0 2.597-1.004 2.597-2.241v-.011c0-1.237-1.163-2.24-2.597-2.24zM152.539 112.298h-.012c-1.435 0-2.597 1.003-2.597 2.24v.011c0 1.237 1.162 2.241 2.597 2.241h.012c1.435 0 2.597-1.004 2.597-2.241v-.011c0-1.237-1.162-2.24-2.597-2.24zM178.265 125.142h-29.476v16.281h29.476v-16.281z" fill="#262626"/><path d="M292.065 60.925h-78.249v47.041h78.249v-47.04z" fill="#10AD78"/><path d="M288.943 63.621v41.644H216.95V63.621h71.993zm6.243-5.386h-84.479v52.416h84.479V58.235zM312.509 58.235h-17.318v52.426h17.318V58.235z" fill="#262626"/><path d="M265.248 44.909c-3.171 0-5.768 3.415-5.768 7.594l.187 31.389h-10.501l-.349-29.278c-.075-4.168-2.797-7.54-5.968-7.4-3.172.14-5.532 3.598-5.457 7.777V105.597h33.662V52.503c0-4.18-2.634-7.594-5.806-7.594z" fill="#fff" stroke="#262626" stroke-width=".772" stroke-miterlimit="10"/><path d="M261.352 95.537h-.013c-1.434 0-2.597 1.003-2.597 2.24v.01c0 1.238 1.163 2.241 2.597 2.241h.013c1.434 0 2.597-1.003 2.597-2.24v-.01c0-1.238-1.163-2.241-2.597-2.241zM248.992 95.537h-.012c-1.434 0-2.597 1.003-2.597 2.24v.01c0 1.238 1.163 2.241 2.597 2.241h.012c1.435 0 2.597-1.003 2.597-2.24v-.01c0-1.238-1.162-2.241-2.597-2.241zM268.069 108.865h-29.475v15.884h29.475v-15.884zM112.848 117.532c0-21.601-20.298-39.112-45.336-39.112-25.039 0-45.336 17.51-45.336 39.112v37.755c0 21.601 20.297 39.112 45.336 39.112 25.038 0 45.336-17.511 45.336-39.112v-37.755z" fill="#262626"/><path d="m86.854 53.483-6.04 2.412c-5.631 2.249-8.083 8.011-5.476 12.87L90.376 96.79c2.607 4.859 9.286 6.975 14.918 4.726l6.039-2.412c5.632-2.25 8.084-8.012 5.477-12.87l-15.038-28.026c-2.607-4.859-9.286-6.974-14.918-4.725z" fill="#262626"/><path d="M98.26 71.514c3.051-8.321-2.293-17.2-11.935-19.83-9.642-2.63-19.93 1.982-22.981 10.303l-4.39 11.976c-3.05 8.32 2.293 17.199 11.935 19.83 9.642 2.63 19.931-1.983 22.981-10.304l4.39-11.975z" fill="#fff"/><path d="m76.192 53.53-4.864-3.918c-4.537-3.654-11.648-3.443-15.883.47L31.018 72.659c-4.235 3.914-3.99 10.049.546 13.702l4.865 3.918c4.537 3.653 11.648 3.442 15.883-.471L76.739 67.23c4.235-3.913 3.99-10.048-.547-13.702z" fill="#262626"/><path d="m109.09 61.96 1.303-3.553c1.871-5.105-1.409-10.552-7.326-12.166L73.413 38.15c-5.918-1.615-12.232 1.215-14.103 6.32l-1.303 3.553c-1.871 5.105 1.409 10.552 7.326 12.167l29.654 8.09c5.918 1.615 12.232-1.214 14.103-6.32z" fill="#262626"/><path d="M70.706 76.147 65.25 91.012M75.479 77.712l-5.444 14.865M79.933 78.659l-5.456 14.875M84.295 79.854 78.852 94.73M89.265 81.2l-5.456 14.875" stroke="#262626" stroke-width=".772" stroke-miterlimit="10"/><path d="m106.164 148.63.112.496 2.498 49.959 153.313-26.046c38.406-6.517 92.844-39.263 86.539-66.903l-.163-.593-242.299 43.087z" fill="#fff" stroke="#262626" stroke-width="1.93" stroke-miterlimit="10"/><path d="m22.46 163.151 5.92 25.939c1.306 5.652 5.154 10.628 10.701 13.84 5.548 3.212 12.344 4.397 18.902 3.298l92.582-15.727c6.552-1.127 12.32-4.447 16.043-9.233 3.722-4.786 5.096-10.649 3.822-16.307l-5.918-25.938-142.051 24.128z" fill="#fff" stroke="#262626" stroke-width="1.93" stroke-miterlimit="10"/><path d="m24.898 175.572 322.073-54.759M26.824 188.084l309.872-52.618M36.188 199.398l279.082-47.406" stroke="#262626" stroke-width="1.491" stroke-miterlimit="10"/><path d="m90.281 71.041-.012-.003c-1.367-.373-2.827.281-3.26 1.46l-.003.011c-.432 1.18.326 2.439 1.693 2.812l.012.003c1.368.373 2.827-.28 3.26-1.46l.003-.01c.433-1.18-.325-2.44-1.693-2.813z" fill="#262626"/><path d="M338.941 47.19h-60.332v35.925h60.332V47.19z" fill="#10AD78"/><path d="M335.807 49.888v30.538h-54.076V49.888h54.076zm6.243-5.385h-66.562v41.31h66.562v-41.31zM355.698 44.503h-13.647v41.31h13.647v-41.31z" fill="#262626"/><path d="M317.814 32.004c-2.498 0-4.633 2.736-4.633 6.097l.163 25.227h-8.441l-.287-23.525c-.062-3.35-2.247-6.032-4.794-5.946-2.548.086-4.445 2.887-4.383 6.237v40.664h27.007V38.1c0-3.36-2.085-6.097-4.632-6.097z" fill="#fff" stroke="#262626" stroke-width=".772" stroke-miterlimit="10"/><path d="M314.68 73.067h-.013c-1.151 0-2.085.805-2.085 1.798v.011c0 .994.934 1.799 2.085 1.799h.013c1.151 0 2.085-.805 2.085-1.799v-.01c0-.994-.934-1.8-2.085-1.8zM304.754 73.067h-.013c-1.151 0-2.085.805-2.085 1.798v.011c0 .994.934 1.799 2.085 1.799h.013c1.151 0 2.085-.805 2.085-1.799v-.01c0-.994-.934-1.8-2.085-1.8z" fill="#262626"/></g></svg>