<svg width="520" height="282" fill="none" xmlns="http://www.w3.org/2000/svg"><path d="M263.021 42.094c6.522 0 8.405 9.25 4.176 20.537l-30.373 80.746h21.305l29.617-75.026c4.388-11.255 13.258-20.229 19.674-19.92 6.417.308 8.101 9.744 3.712 21.015l-28.888 74.008h.12l-24.182 64.256h-69.324l15.299-40.789 8.883-23.621 30.36-80.746c4.269-11.286 13.072-20.491 19.621-20.46z" fill="#fff" stroke="#262626" stroke-width="2.545" stroke-miterlimit="10"/><path d="M228.264 193.223c-1.45-1.998-.47-5.732 2.189-8.34 2.659-2.609 5.989-3.103 7.438-1.105 1.45 1.999.469 5.733-2.189 8.341-2.659 2.608-5.989 3.103-7.438 1.104zM221.887 176.763c-1.88-2.591-.612-7.428 2.83-10.805s7.755-4.015 9.635-1.424c1.879 2.591.612 7.428-2.831 10.805-3.442 3.377-7.755 4.014-9.634 1.424zM245.027 176.857c-1.879-2.591-.612-7.429 2.83-10.806 3.442-3.377 7.756-4.014 9.635-1.423 1.879 2.59.612 7.428-2.83 10.805s-7.756 4.014-9.635 1.424z" fill="#262626"/><path d="M257.391 181.265c-3.063 8.157-11.123 14.756-17.991 14.726-3.606 0-6.165-1.866-7.331-4.796-3.119 2.872-6.937 4.528-10.911 4.734-6.868 0-9.943-6.677-6.881-14.833" stroke="#262626" stroke-width="3.659" stroke-miterlimit="10"/><path d="M325.654 42.094c6.522 0 8.405 9.25 4.176 20.537l-30.373 80.746h21.305l29.617-75.026c4.388-11.255 13.257-20.229 19.674-19.92 6.417.308 8.1 9.744 3.712 21.015l-28.888 74.008h.119l-24.181 64.256h-69.324l15.299-40.789 8.883-23.621 30.359-80.746c4.269-11.286 13.072-20.491 19.622-20.46z" fill="#fff" stroke="#262626" stroke-width="2.545" stroke-miterlimit="10"/><path d="M290.897 193.225c-1.45-1.998-.47-5.732 2.189-8.34 2.658-2.609 5.988-3.103 7.438-1.105 1.449 1.998.469 5.733-2.189 8.341-2.659 2.608-5.989 3.103-7.438 1.104zM284.519 176.765c-1.879-2.591-.612-7.429 2.83-10.805 3.443-3.377 7.756-4.015 9.635-1.424 1.879 2.59.612 7.428-2.83 10.805s-7.756 4.014-9.635 1.424zM307.66 176.861c-1.879-2.591-.612-7.429 2.83-10.806 3.442-3.377 7.756-4.014 9.635-1.423 1.879 2.59.612 7.428-2.83 10.805s-7.756 4.014-9.635 1.424z" fill="#262626"/><path d="M320.023 181.267c-3.062 8.157-11.123 14.756-17.99 14.725-3.606 0-6.165-1.865-7.331-4.795-3.119 2.872-6.937 4.528-10.911 4.734-6.868 0-9.944-6.677-6.881-14.833" stroke="#262626" stroke-width="3.659" stroke-miterlimit="10"/><path d="M389.349 42.098c6.523 0 8.405 9.25 4.176 20.537l-30.373 80.746h21.305l29.617-75.026c4.388-11.255 13.258-20.229 19.674-19.92 6.417.308 8.101 9.744 3.712 21.015l-28.888 74.008h.12l-24.182 64.256h-69.324l15.299-40.789 8.883-23.621 30.36-80.746c4.269-11.286 13.072-20.491 19.621-20.46z" fill="#fff" stroke="#262626" stroke-width="2.545" stroke-miterlimit="10"/><path d="M354.592 193.227c-1.45-1.998-.469-5.732 2.189-8.34 2.659-2.609 5.989-3.103 7.438-1.105 1.45 1.998.47 5.733-2.189 8.341-2.659 2.608-5.989 3.103-7.438 1.104zM348.215 176.767c-1.879-2.591-.612-7.429 2.83-10.805 3.442-3.377 7.756-4.015 9.635-1.424 1.879 2.59.612 7.428-2.83 10.805-3.443 3.377-7.756 4.014-9.635 1.424zM371.355 176.859c-1.879-2.591-.612-7.429 2.83-10.806 3.442-3.377 7.756-4.014 9.635-1.423 1.879 2.59.612 7.428-2.83 10.805s-7.756 4.014-9.635 1.424z" fill="#262626"/><path d="M383.715 181.269c-3.063 8.157-11.123 14.756-17.991 14.725-3.606 0-6.164-1.865-7.331-4.795-3.119 2.872-6.937 4.528-10.911 4.734-6.867 0-9.943-6.677-6.881-14.833" stroke="#262626" stroke-width="3.659" stroke-miterlimit="10"/><g clip-path="url(#a)"><path d="M79.186 109.771h43.693v101.185H79.186V109.771z" fill="#262626"/><path d="M41.639 5.17H166.87v101.934H41.639V5.17z" fill="#F6D655"/><path d="M46.076 10.338v91.617h116.351V10.338H46.077zM37.194 0H171.31v112.293H37.194V0z" fill="#262626"/><path d="M130.785 103.636V74.127c-.022-8.102-3.361-15.866-9.287-21.597-5.926-5.731-13.958-8.964-22.341-8.99-8.369.048-16.378 3.29-22.286 9.019-5.907 5.728-9.234 13.48-9.257 21.568v29.509" fill="#262626"/><path d="m107.403 29.123.006.02c1.694 5.029-.435 10.703-4.755 12.675l-15.678 7.155c-4.32 1.972-9.195-.506-10.89-5.535l-.006-.02c-1.694-5.028.435-10.703 4.755-12.674l15.678-7.156c4.32-1.971 9.196.507 10.89 5.535z" fill="#262626"/><path d="M93.558 31.822c2.577-6.097 8.913-8.607 14.15-5.607 5.238 3 7.394 10.374 4.817 16.47l-3.717 8.793c-2.578 6.097-8.913 8.607-14.15 5.607-5.238-3-7.394-10.373-4.817-16.47l3.717-8.793z" fill="#fff"/><path d="M112.956 32.08h.018c4.64.068 8.354 4.501 8.295 9.902l-.211 19.6c-.059 5.4-3.867 9.724-8.507 9.656h-.018c-4.64-.068-8.354-4.501-8.296-9.902l.212-19.6c.058-5.4 3.867-9.724 8.507-9.656z" fill="#262626"/><path d="m93.885 20.206.008-.018c1.884-4.458 6.516-6.293 10.345-4.1l13.882 7.951c3.83 2.194 5.406 7.585 3.522 12.042l-.008.018c-1.884 4.457-6.516 6.293-10.345 4.1l-13.882-7.951c-3.83-2.194-5.406-7.585-3.522-12.042z" fill="#262626"/><path d="m102.867 47.35-4.619 10.917M97.863 44.496l-4.619 10.897M92.793 41.58l-4.619 10.918" stroke="#262626" stroke-width="2.545" stroke-miterlimit="10"/><path d="M95.1 36.075c.367-.865 1.266-1.222 2.01-.796.744.426 1.05 1.473.684 2.34-.365.865-1.265 1.221-2.009.795-.744-.426-1.05-1.473-.684-2.339z" fill="#262626"/></g><path d="M456.197 42.098c6.522 0 8.405 9.25 4.176 20.537L430 143.381h21.304l29.618-75.026c4.388-11.255 13.257-20.229 19.674-19.92 6.417.308 8.1 9.744 3.712 21.015l-28.888 74.008h.119l-24.181 64.256h-69.324l15.299-40.789 8.883-23.621 30.359-80.746c4.269-11.286 13.072-20.491 19.622-20.46z" fill="#fff" stroke="#262626" stroke-width="2.545" stroke-miterlimit="10"/><path d="M421.439 193.227c-1.449-1.998-.469-5.732 2.19-8.34 2.658-2.609 5.988-3.103 7.438-1.105 1.449 1.998.469 5.733-2.189 8.341-2.659 2.608-5.989 3.103-7.439 1.104zM415.062 176.767c-1.879-2.591-.612-7.429 2.83-10.805 3.443-3.377 7.756-4.015 9.635-1.424 1.879 2.59.612 7.428-2.83 10.805s-7.756 4.014-9.635 1.424zM438.203 176.859c-1.879-2.591-.612-7.429 2.83-10.806 3.442-3.377 7.756-4.014 9.635-1.423 1.879 2.59.612 7.428-2.83 10.805s-7.756 4.014-9.635 1.424z" fill="#262626"/><path d="M450.562 181.269c-3.062 8.157-11.123 14.756-17.99 14.725-3.606 0-6.165-1.865-7.331-4.795-3.119 2.872-6.937 4.528-10.911 4.734-6.868 0-9.943-6.677-6.881-14.833" stroke="#262626" stroke-width="3.659" stroke-miterlimit="10"/><path d="m376.741 208.943 5.803 22.051L385 279.996H218.976c-41.562-.817-105.57-30.718-104.986-71.053h262.751z" fill="#fff" stroke="#262626" stroke-width="3.659" stroke-miterlimit="10"/><path d="m467.34 208.943-.544 40.491c-.132 8.254-3.07 16.111-8.171 21.852-5.1 5.741-11.949 8.825-19.046 8.71H339.392c-7.093-.162-13.841-5.485-18.769-11.421-4.927-5.935-7.631-13.899-7.521-22.148l.543-37.484H467.34z" fill="#fff" stroke="#262626" stroke-width="3.659" stroke-miterlimit="10"/><path d="M466.508 223.527H60.272M466.508 237.631H67.625M466.508 252.35H85.394M462.82 266.449H112.343" stroke="#262626" stroke-width="2.545"/><path d="M0 280h520" stroke="#262626" stroke-width="2.545" stroke-miterlimit="10"/><defs><clipPath id="a"><path fill="#fff" transform="matrix(-1 0 0 1 171.309 0)" d="M0 0h161.612v239.162H0z"/></clipPath></defs></svg>